<?xml version="1.0" encoding="utf-8"?>
<!-- Generator: Adobe Illustrator 16.0.0, SVG Export Plug-In . SVG Version: 6.00 Build 0)  -->
<!DOCTYPE svg PUBLIC "-//W3C//DTD SVG 1.1//EN" "http://www.w3.org/Graphics/SVG/1.1/DTD/svg11.dtd">
<svg version="1.1" id="Ebene_1" xmlns="http://www.w3.org/2000/svg" xmlns:xlink="http://www.w3.org/1999/xlink" x="0px" y="0px"
	 width="34px" height="34px" viewBox="0 0 34 34" enable-background="new 0 0 34 34" xml:space="preserve">
<path fill-rule="evenodd" clip-rule="evenodd" fill="#010202" d="M33.121,5.121L21.242,17l11.879,11.878
	C33.664,29.421,34,30.171,34,31c0,1.656-1.344,3-3,3c-0.828,0-1.578-0.336-2.121-0.879L17,21.242L5.121,33.121
	C4.578,33.664,3.828,34,3,34c-1.657,0-3-1.344-3-3c0-0.828,0.335-1.578,0.878-2.121L12.757,17L0.878,5.121C0.335,4.578,0,3.828,0,3
	c0-1.657,1.343-3,3-3c0.828,0,1.578,0.335,2.121,0.878L17,12.757L28.878,0.878C29.421,0.335,30.171,0,31,0c1.656,0,3,1.343,3,3
	C34,3.828,33.664,4.578,33.121,5.121"/>
</svg>
