<?xml version="1.0" encoding="utf-8"?>
<!-- Generator: Adobe Illustrator 16.0.0, SVG Export Plug-In . SVG Version: 6.00 Build 0)  -->
<!DOCTYPE svg PUBLIC "-//W3C//DTD SVG 1.1//EN" "http://www.w3.org/Graphics/SVG/1.1/DTD/svg11.dtd">
<svg version="1.1" id="Ebene_1" xmlns="http://www.w3.org/2000/svg" xmlns:xlink="http://www.w3.org/1999/xlink" x="0px" y="0px"
	 width="64px" height="58px" viewBox="0 0 64 58" enable-background="new 0 0 64 58" xml:space="preserve">
<path fill-rule="evenodd" clip-rule="evenodd" fill="#010202" d="M61,49H35.9H24h-3h-0.757l-8.122,8.121
	C11.578,57.664,10.828,58,10,58c-0.013,0-0.024-0.004-0.037-0.004c-0.813-0.01-1.55-0.34-2.084-0.875
	c-0.013-0.012-0.021-0.026-0.033-0.04c-0.122-0.125-0.236-0.258-0.334-0.403c-0.039-0.058-0.065-0.123-0.099-0.185
	c-0.062-0.105-0.129-0.211-0.177-0.325c-0.023-0.055-0.033-0.114-0.053-0.17c-0.046-0.129-0.094-0.257-0.122-0.394
	C7.021,55.409,7,55.207,7,55v-6H6.5H2.999C1.343,49,0,47.657,0,46V3c0-1.656,1.343-3,3-3h58c1.657,0,3,1.344,3,3v43
	C64,47.657,62.657,49,61,49"/>
</svg>
