<?xml version="1.0" encoding="utf-8"?>
<!-- Generator: Adobe Illustrator 16.0.0, SVG Export Plug-In . SVG Version: 6.00 Build 0)  -->
<!DOCTYPE svg PUBLIC "-//W3C//DTD SVG 1.1//EN" "http://www.w3.org/Graphics/SVG/1.1/DTD/svg11.dtd">
<svg version="1.1" id="Ebene_1" xmlns="http://www.w3.org/2000/svg" xmlns:xlink="http://www.w3.org/1999/xlink" x="0px" y="0px"
	 width="48px" height="58px" viewBox="0 0 48 58" enable-background="new 0 0 48 58" xml:space="preserve">
<path fill-rule="evenodd" clip-rule="evenodd" fill="#010202" d="M0,9c0-1.657,1.343-3,3-3h15V3c0-1.657,1.343-3,3-3h6
	c1.657,0,3,1.343,3,3v3h15c1.657,0,3,1.343,3,3v3H0V9z M45,18v6v31c0,1.657-1.343,3-3,3H6c-1.657,0-3-1.343-3-3V24v-6v-3h42V18z
	 M15,24c0-1.657-1.343-3-3-3s-3,1.343-3,3v25c0,1.657,1.343,3,3,3s3-1.343,3-3V24z M27,24c0-1.657-1.343-3-3-3s-3,1.343-3,3v25
	c0,1.657,1.343,3,3,3s3-1.343,3-3V24z M39,24c0-1.657-1.343-3-3-3s-3,1.343-3,3v25c0,1.657,1.343,3,3,3s3-1.343,3-3V24z"/>
</svg>
