<?xml version="1.0" encoding="utf-8"?>
<!-- Generator: Adobe Illustrator 16.0.0, SVG Export Plug-In . SVG Version: 6.00 Build 0)  -->
<!DOCTYPE svg PUBLIC "-//W3C//DTD SVG 1.1//EN" "http://www.w3.org/Graphics/SVG/1.1/DTD/svg11.dtd">
<svg version="1.1" id="Ebene_1" xmlns="http://www.w3.org/2000/svg" xmlns:xlink="http://www.w3.org/1999/xlink" x="0px" y="0px"
	 width="50.007px" height="54.008px" viewBox="0 0 50.007 54.008" enable-background="new 0 0 50.007 54.008" xml:space="preserve">
<path fill-rule="evenodd" clip-rule="evenodd" fill="#010202" d="M49.308,25.909L49.308,25.909l-0.22,0.254L25.007,3.008h-18h-4
	c0-1.656,1.343-3,3-3V0h18.992v0.01c0.003,0,0.005-0.002,0.008-0.002c0.831,0,1.582,0.338,2.126,0.885l16.838,16.105
	c0.005-0.009,0.011-0.019,0.017-0.027l5.133,4.909c0.547,0.543,0.887,1.296,0.887,2.128C50.007,24.734,49.737,25.392,49.308,25.909
	 M22,6v0.01c0.002,0,0.004-0.002,0.007-0.002c0.831,0,1.582,0.338,2.126,0.885l22.972,21.973c0.418,0.409,0.717,0.938,0.84,1.531
	c0,0.002,0,0.003,0,0.005c0.018,0.083,0.029,0.168,0.039,0.253c0.002,0.016,0.006,0.031,0.008,0.046
	c0.009,0.085,0.012,0.172,0.014,0.259c0,0.017,0.002,0.032,0.002,0.049c0,0.741-0.27,1.418-0.716,1.942l0.002,0.001l-17,20
	l-0.002-0.001c-0.55,0.646-1.368,1.058-2.284,1.058c-0.098,0-0.193-0.005-0.29-0.015c-0.067-0.006-0.135-0.018-0.201-0.029
	c-0.022-0.004-0.046-0.006-0.069-0.01c-0.537-0.102-1.022-0.347-1.417-0.694l-0.004,0.005l-25-22.999l0.011-0.013
	c-0.614-0.54-1.009-1.317-1.023-2.195H0V12V9.058v-0.05h0.007c0-1.656,1.343-3,3-3V6H22z M8.007,18.008c2.209,0,4-1.791,4-4
	s-1.791-4-4-4s-4,1.791-4,4S5.798,18.008,8.007,18.008"/>
</svg>
