<?xml version="1.0" encoding="utf-8"?>
<!-- Generator: Adobe Illustrator 16.0.0, SVG Export Plug-In . SVG Version: 6.00 Build 0)  -->
<!DOCTYPE svg PUBLIC "-//W3C//DTD SVG 1.1//EN" "http://www.w3.org/Graphics/SVG/1.1/DTD/svg11.dtd">
<svg version="1.1" id="Ebene_1" xmlns="http://www.w3.org/2000/svg" xmlns:xlink="http://www.w3.org/1999/xlink" x="0px" y="0px"
	 width="59.964px" height="60.045px" viewBox="0 0 59.964 60.045" enable-background="new 0 0 59.964 60.045" xml:space="preserve">
<path fill-rule="evenodd" clip-rule="evenodd" fill="#010202" d="M56.505,20.208l-8.349,8.37c-3.104,3.112-7.504,4.12-11.457,3.042
	l6.97-6.97c0.103-0.09,0.216-0.159,0.313-0.257l8.349-8.37c2.305-2.312,2.305-6.06,0-8.37c-2.306-2.312-6.044-2.312-8.349,0
	l-8.35,8.37c0,0.001-0.001,0.002-0.002,0.003l-0.005-0.006l-7.221,7.221c-1.039-3.942-0.028-8.313,3.054-11.403l8.349-8.37
	c4.61-4.623,12.087-4.623,16.697,0C61.116,8.09,61.116,15.584,56.505,20.208 M22.169,42.18l-0.009-0.009
	c-0.544,0.552-1.299,0.896-2.136,0.896c-1.657,0-3-1.345-3-3c0-0.868,0.375-1.645,0.964-2.192l19.845-19.844
	c0.547-0.59,1.323-0.965,2.191-0.965c1.656,0,3,1.344,3,3c0,0.82-0.331,1.562-0.864,2.104l0.009,0.009L22.169,42.18z M15.982,35.653
	l-8.35,8.37c-2.305,2.312-2.305,6.059,0,8.37c2.307,2.312,6.043,2.312,8.35,0l8.349-8.37c0.059-0.06,0.098-0.129,0.154-0.19
	l7.064-7.063c1.056,3.949,0.047,8.339-3.045,11.438l-8.349,8.37c-4.61,4.623-12.086,4.623-16.697,0
	c-4.611-4.622-4.611-12.117,0-16.74l8.349-8.37c3.095-3.102,7.478-4.111,11.421-3.051l-7.188,7.188
	C16.023,35.622,16,35.633,15.982,35.653"/>
</svg>
