<?xml version="1.0" encoding="utf-8"?>
<!-- Generator: Adobe Illustrator 16.0.0, SVG Export Plug-In . SVG Version: 6.00 Build 0)  -->
<!DOCTYPE svg PUBLIC "-//W3C//DTD SVG 1.1//EN" "http://www.w3.org/Graphics/SVG/1.1/DTD/svg11.dtd">
<svg version="1.1" id="Ebene_1" xmlns="http://www.w3.org/2000/svg" xmlns:xlink="http://www.w3.org/1999/xlink" x="0px" y="0px"
	 width="64.003px" height="61.993px" viewBox="0 0 64.003 61.993" enable-background="new 0 0 64.003 61.993" xml:space="preserve">
<path fill-rule="evenodd" clip-rule="evenodd" fill="#010202" d="M64.001,58.986c0,0.002,0,0.005,0,0.007c0,1.657-1.343,3-3,3h-58
	c-1.657,0-3-1.343-3-3c0-0.002,0.001-0.005,0.001-0.007H0c0,0,0-10.933,7.988-14.907c5.055-2.515,3.109-0.473,9.314-3.047
	c6.205-2.57,7.676-3.467,7.676-3.467l0.058-5.923c0,0-2.324-1.778-3.046-7.352c-1.455,0.421-1.935-1.707-2.021-3.062
	c-0.077-1.309-0.841-5.396,0.933-5.026c-0.363-2.729-0.624-5.19-0.496-6.494C20.851,5.131,25.259,0.35,32.049,0
	C40.036,0.349,43.2,5.128,43.642,9.705c0.131,1.303-0.154,3.766-0.518,6.49c1.774-0.364,1.004,3.717,0.918,5.026
	c-0.08,1.354-0.57,3.474-2.021,3.055c-0.726,5.574-3.05,7.337-3.05,7.337l0.055,5.894c0,0,1.469,0.84,7.675,3.409
	c6.205,2.573,4.259,0.649,9.313,3.164c7.988,3.974,7.988,14.906,7.988,14.906H64.001z"/>
</svg>
