<?xml version="1.0" encoding="utf-8"?>
<!-- Generator: Adobe Illustrator 16.0.0, SVG Export Plug-In . SVG Version: 6.00 Build 0)  -->
<!DOCTYPE svg PUBLIC "-//W3C//DTD SVG 1.1//EN" "http://www.w3.org/Graphics/SVG/1.1/DTD/svg11.dtd">
<svg version="1.1" id="Ebene_1" xmlns="http://www.w3.org/2000/svg" xmlns:xlink="http://www.w3.org/1999/xlink" x="0px" y="0px"
	 width="32px" height="28px" viewBox="0 0 32 28" enable-background="new 0 0 32 28" xml:space="preserve">
<path fill-rule="evenodd" clip-rule="evenodd" fill="#010202" d="M16,0c1.1,0,2.061,0.592,2.583,1.475l12.979,21.964
	c0.005,0.008,0.009,0.017,0.014,0.023l0.007,0.012C31.848,23.921,32,24.442,32,25c0,1.656-1.343,3-3,3H3c-1.656,0-3-1.344-3-3
	c0-0.558,0.153-1.079,0.418-1.526H0.417l0.007-0.012c0.005-0.007,0.01-0.016,0.015-0.023L13.417,1.475C13.94,0.592,14.901,0,16,0"/>
</svg>
